<svg id="Calque_1" data-name="Calque 1" xmlns="http://www.w3.org/2000/svg" viewBox="0 0 521.79 411.71"><defs><style>.cls-1{fill:#1d1d1b;}.cls-2{fill:none;}.cls-3{fill:#e9521e;}</style></defs><path class="cls-1" d="M404.19,97c3.79-36.53,38.18-62.45,74.88-62.79q40-.37,80,0c43.66.4,77.69,34.58,78,78.28q.27,38.63,0,77.27c-.35,45.47-34.21,79.19-79.71,79.45q-38.62.23-77.24,0c-43.46-.34-77.66-34.79-77.95-78.34-.09-13,0-26.07,0-39.1m42.93-56V207c23.4,0,46.31.89,69.1-.33,14.41-.77,25.11-13.75,26.36-28.3,1.37-16-6.92-26.34-20.61-33.54,1.15-2.88,2.34-5.37,3.16-8C529,118.35,517,97.73,497.72,96,480.55,94.49,463.15,95.7,445.11,95.7Zm127.65,63.44a31.89,31.89,0,1,0-31.21-32.47A31.87,31.87,0,0,0,572.76,159.14ZM597.12,183V168.11H550.05V183Z" transform="translate(-257.05 -33.98)"/><path class="cls-2" d="M445.11,95.7c18,0,35.44-1.21,52.61.31,19.32,1.72,31.3,22.34,25.4,40.87-.82,2.6-2,5.09-3.16,8,13.69,7.2,22,17.56,20.61,33.54-1.25,14.55-12,27.53-26.36,28.3-22.79,1.22-45.7.33-69.1.33Zm15.59,95.24c16.88,0,33.2.36,49.5-.16,8-.25,13.48-7.07,13.73-14.94s-4.87-15.13-13-15.5c-16.57-.76-33.2-.23-50.25-.23Zm-.05-48.32c11.87,0,23.3.68,34.6-.24,8-.64,12.58-6.54,12.95-14.64.35-7.75-3.59-14.29-11.05-15-12.1-1.22-24.4-.33-36.5-.33Z" transform="translate(-257.05 -33.98)"/><path class="cls-3" d="M572.76,159.14a31.89,31.89,0,1,1,32.47-31.31A31.62,31.62,0,0,1,572.76,159.14Zm.56-47.42a15.53,15.53,0,1,0,15.61,16A15.44,15.44,0,0,0,573.32,111.72Z" transform="translate(-257.05 -33.98)"/><path class="cls-2" d="M597.12,183H550.05V168.11h47.07Z" transform="translate(-257.05 -33.98)"/><path class="cls-1" d="M460.7,190.94V160.11c17.05,0,33.68-.53,50.25.23,8.11.37,13.22,7.7,13,15.5s-5.75,14.69-13.73,14.94C493.9,191.3,477.58,190.94,460.7,190.94Z" transform="translate(-257.05 -33.98)"/><path class="cls-1" d="M460.65,142.62V112.36c12.1,0,24.4-.89,36.5.33,7.46.76,11.4,7.3,11.05,15-.37,8.1-5,14-12.95,14.64C484,143.3,472.52,142.62,460.65,142.62Z" transform="translate(-257.05 -33.98)"/><path class="cls-1" d="M573.32,111.72a15.53,15.53,0,1,1,0,31.06,15.53,15.53,0,1,1,0-31.06Z" transform="translate(-257.05 -33.98)"/><path class="cls-3" d="M257.05,443.42V326.32h15.86v117.1Zm10.63,0V429.58h35.43q10.13,0,15.86-6a20.12,20.12,0,0,0,5.74-14.42,20.93,20.93,0,0,0-2.53-10.3,19.23,19.23,0,0,0-7.34-7.34,22.43,22.43,0,0,0-11.39-2.78H267.68V374.91h33.4q8.61,0,13.59-4.47c3.31-3,5-7.28,5-12.91s-1.75-9.92-5.24-12.91-8.15-4.47-14-4.47H267.68V326.32h33.24q11.46,0,19.15,4.13a29.28,29.28,0,0,1,11.64,10.88,28.84,28.84,0,0,1,4,14.85,27.42,27.42,0,0,1-5.14,16.54q-5.14,7.08-15.1,11.14l1.35-5.07q11.3,4.05,17.63,12.24a30.63,30.63,0,0,1,6.33,19.32,31.28,31.28,0,0,1-4.56,16.7A32.82,32.82,0,0,1,323.1,439q-8.52,4.47-20.83,4.47Z" transform="translate(-257.05 -33.98)"/><path class="cls-3" d="M390.17,445.1a40.78,40.78,0,0,1-21.09-5.56,41.58,41.58,0,0,1-20.58-36.45,40.36,40.36,0,0,1,5.56-21,42.05,42.05,0,0,1,15-14.93,40.79,40.79,0,0,1,21.09-5.57,42,42,0,0,1,21.35,5.49,40.88,40.88,0,0,1,20.67,36,41.41,41.41,0,0,1-42,42Zm0-14.68a26.09,26.09,0,0,0,13.67-3.54,25.17,25.17,0,0,0,9.28-9.7,28.84,28.84,0,0,0,3.37-14.09A27.55,27.55,0,0,0,413,389.25a25.68,25.68,0,0,0-9.29-9.53,27.89,27.89,0,0,0-26.91,0,24.85,24.85,0,0,0-9.28,9.53,28,28,0,0,0-3.37,13.84,28.84,28.84,0,0,0,3.37,14.09,25.17,25.17,0,0,0,9.28,9.7A25.43,25.43,0,0,0,390.17,430.42Z" transform="translate(-257.05 -33.98)"/><path class="cls-3" d="M479.77,445.1a40.79,40.79,0,0,1-21.1-5.56,41.63,41.63,0,0,1-20.58-36.45,40.37,40.37,0,0,1,5.57-21,42,42,0,0,1,15-14.93,40.8,40.8,0,0,1,21.1-5.57,42,42,0,0,1,21.34,5.49,40.88,40.88,0,0,1,20.67,36,41.41,41.41,0,0,1-42,42Zm0-14.68a26.06,26.06,0,0,0,13.66-3.54,25.17,25.17,0,0,0,9.28-9.7,28.85,28.85,0,0,0,3.38-14.09,27.55,27.55,0,0,0-3.46-13.84,25.73,25.73,0,0,0-9.28-9.53,27.89,27.89,0,0,0-26.91,0,24.78,24.78,0,0,0-9.28,9.53,27.93,27.93,0,0,0-3.38,13.84,28.74,28.74,0,0,0,3.38,14.09,25.09,25.09,0,0,0,9.28,9.7A25.38,25.38,0,0,0,479.77,430.42Z" transform="translate(-257.05 -33.98)"/><path class="cls-3" d="M558.39,445.1a45.59,45.59,0,0,1-12.82-1.77,40.37,40.37,0,0,1-11.05-5.06,38.3,38.3,0,0,1-8.69-7.85l9.78-9.78a27.92,27.92,0,0,0,10.13,8,30.45,30.45,0,0,0,12.82,2.62q7.1,0,11-2.45a7.67,7.67,0,0,0,3.88-6.83,8.21,8.21,0,0,0-3.12-6.84,26.49,26.49,0,0,0-8-4q-4.89-1.61-10.37-3.13a53.27,53.27,0,0,1-10.38-4.05,21.77,21.77,0,0,1-8-7q-3.12-4.47-3.12-11.72a22.62,22.62,0,0,1,3.46-12.58,22.38,22.38,0,0,1,9.87-8.18,37.47,37.47,0,0,1,15.36-2.87,40.73,40.73,0,0,1,16.79,3.29,29.55,29.55,0,0,1,12.06,9.87l-9.79,9.79a24.47,24.47,0,0,0-8.43-6.75,25.42,25.42,0,0,0-11.14-2.36q-6.59,0-10,2.36a7.63,7.63,0,0,0-.42,12.49,27.2,27.2,0,0,0,8,3.71q5,1.51,10.38,3.12a52.27,52.27,0,0,1,10.29,4.3,23.21,23.21,0,0,1,8,7.26q3.12,4.56,3.12,12,0,11.31-8,17.88T558.39,445.1Z" transform="translate(-257.05 -33.98)"/><path class="cls-3" d="M591.8,377.11V363.27h54.67v13.84Zm19.74,66.31V329.69h15.19V443.42Z" transform="translate(-257.05 -33.98)"/><path class="cls-1" d="M691.88,445.69a33.75,33.75,0,0,1-14.32-3,28.7,28.7,0,0,1-10.84-8.63l7.42-7.42a18.73,18.73,0,0,0,7.3,6.43,22,22,0,0,0,10.2,2.38,20,20,0,0,0,9.34-2,15,15,0,0,0,6.09-5.74,16.55,16.55,0,0,0,2.2-8.58,16.2,16.2,0,0,0-2.2-8.58,15,15,0,0,0-6.27-5.62,21.44,21.44,0,0,0-9.73-2,29.67,29.67,0,0,0-4.12.29,23.5,23.5,0,0,0-4,.87l4.64-6.26a22.71,22.71,0,0,1,4.75-1.63,23.33,23.33,0,0,1,5.1-.58,22.66,22.66,0,0,1,11.65,3,22.26,22.26,0,0,1,8.24,8.46,25.39,25.39,0,0,1,3.07,12.64,25.06,25.06,0,0,1-3.65,13.51,25.37,25.37,0,0,1-10,9.16A31.86,31.86,0,0,1,691.88,445.69ZM670.43,373.8v-9.73h49v6.6L710,373.8ZM683,404.07v-6.61l23.54-26.79h13L695.24,398Z" transform="translate(-257.05 -33.98)"/><path class="cls-1" d="M750.31,445.69a33.75,33.75,0,0,1-14.32-3,28.78,28.78,0,0,1-10.84-8.63l7.42-7.42a18.83,18.83,0,0,0,7.31,6.43,22,22,0,0,0,10.2,2.38,20,20,0,0,0,9.33-2,15,15,0,0,0,6.09-5.74,16.45,16.45,0,0,0,2.2-8.58,16.11,16.11,0,0,0-2.2-8.58,15,15,0,0,0-6.26-5.62,21.48,21.48,0,0,0-9.74-2,29.78,29.78,0,0,0-4.12.29,23.71,23.71,0,0,0-4,.87l4.64-6.26a23,23,0,0,1,4.76-1.63,23.33,23.33,0,0,1,5.1-.58,22.66,22.66,0,0,1,11.65,3,22.24,22.24,0,0,1,8.23,8.46,25.28,25.28,0,0,1,3.07,12.64,25,25,0,0,1-3.65,13.51,25.31,25.31,0,0,1-10,9.16A31.86,31.86,0,0,1,750.31,445.69ZM728.86,373.8v-9.73h49v6.6l-9.51,3.13Zm12.52,30.27v-6.61l23.54-26.79h13L753.67,398Z" transform="translate(-257.05 -33.98)"/></svg>